<svg width="24" height="24" viewBox="0 0 24 24" fill="none" xmlns="http://www.w3.org/2000/svg">
<rect width="24" height="24" rx="12" fill="black"/>
<path d="M14.2361 7.29995C14.6105 8.10422 15.1409 8.87382 15.8273 9.60875C16.5275 10.3645 17.4185 11.1133 18.5001 11.8552C17.4254 12.597 16.5414 13.3406 15.8481 14.086C15.1547 14.8313 14.6174 15.613 14.2361 16.4312H12.0209C12.2774 15.8557 12.6726 15.23 13.2065 14.554C13.7403 13.878 14.295 13.2938 14.8705 12.8016H6.15527V10.8984H14.8185C14.2291 10.3992 13.6745 9.82369 13.1545 9.17195C12.6206 8.50635 12.2219 7.88235 11.9585 7.29995H14.2361Z" fill="#66CC00"/>
</svg>
